<svg width="512" height="512" viewBox="0 0 512 512" fill="none" xmlns="http://www.w3.org/2000/svg">
<path d="M0 95.9999C27.8231 95.938 55.6462 95.8762 84.3125 95.8124C93.0669 95.7851 101.821 95.7578 110.841 95.7297C121.61 95.7161 121.61 95.7161 126.666 95.7136C130.165 95.7108 133.663 95.6997 137.161 95.6832C141.647 95.6624 146.133 95.6565 150.619 95.6607C152.251 95.6598 153.882 95.654 155.514 95.6423C181.586 95.4634 210.54 99.9605 229.934 118.875C230.616 119.576 231.297 120.277 232 121C232.548 121.516 233.096 122.031 233.66 122.562C242.358 131.469 247.106 144.998 249 157C249.129 157.751 249.258 158.503 249.391 159.277C252.31 179.906 249.026 200.92 236.547 217.82C229.719 226.612 220.987 233.159 211 238C210.34 238 209.68 238 209 238C209 238.66 209 239.32 209 240C209.83 240.091 210.66 240.183 211.516 240.277C215.656 241.136 219 242.656 222.75 244.562C223.455 244.92 224.16 245.278 224.887 245.647C243.136 255.186 254.584 270.653 260.957 289.969C267.585 313.741 266.106 340.641 254.141 362.371C240.441 386.084 218.317 399.29 192.413 406.386C132.983 421.505 45.9126 411 0 411C0 307.05 0 203.1 0 95.9999ZM70 150C70 173.76 70 197.52 70 222C83.9502 222.087 83.9502 222.087 97.9004 222.146C103.597 222.164 109.294 222.185 114.99 222.226C119.588 222.259 124.185 222.277 128.782 222.285C130.528 222.29 132.275 222.301 134.021 222.317C148.202 222.444 162.055 221.772 172.816 211.219C180.807 201.446 182.191 190.178 181 178C179.091 168.782 174.397 162.769 167.375 156.75C157.679 151.722 147.25 149.868 136.412 149.886C135.328 149.886 135.328 149.886 134.222 149.886C131.858 149.887 129.493 149.894 127.129 149.902C125.48 149.904 123.831 149.906 122.182 149.907C117.86 149.91 113.538 149.92 109.216 149.931C104.02 149.943 98.8247 149.948 93.6292 149.954C85.7528 149.963 77.8764 149.983 70 150ZM70 271C70 299.05 70 327.1 70 356C90.5425 356.124 90.5425 356.124 111.5 356.25C115.792 356.286 120.084 356.323 124.506 356.36C128.421 356.374 128.421 356.374 132.337 356.382C134.054 356.388 135.771 356.402 137.487 356.422C154.448 356.615 171.321 355.324 184.312 343.187C192.818 334.158 194.467 323.71 194.246 311.625C193.436 299.695 190.033 289.386 181.125 281.125C167.831 270.46 152.162 270.564 135.918 270.707C134.224 270.711 132.529 270.714 130.835 270.716C124.619 270.732 118.403 270.774 112.188 270.812C91.3047 270.905 91.3047 270.905 70 271Z" fill="black"/>
<path d="M472.999 201C473.59 201.445 474.18 201.889 474.788 202.348C498.651 220.838 507.964 253.751 511.999 282C511.999 291.9 511.999 301.8 511.999 312C457.549 312 403.099 312 346.999 312C347.329 312.66 347.659 313.32 347.999 314C348.21 315.767 348.417 317.535 348.594 319.306C350.001 333.073 354.315 346.649 364.785 356.34C377.916 366.182 394.266 369.501 410.378 367.601C422.404 365.67 436.887 360.648 444.999 351C447.752 347.176 449.893 343.213 451.999 339C470.479 339 488.959 339 507.999 339C505.744 349.148 505.744 349.148 504.152 352.578C503.799 353.34 503.446 354.102 503.082 354.886C502.704 355.666 502.326 356.446 501.937 357.25C501.538 358.077 501.14 358.904 500.729 359.756C488.993 383.513 469.954 401.936 444.656 410.539C431.238 414.773 418.028 416.357 403.999 416.316C401.765 416.312 399.533 416.336 397.3 416.361C383.839 416.421 370.564 414.765 357.812 410.25C357.07 409.993 356.329 409.736 355.565 409.472C343.444 405.143 332.966 399.19 322.999 391C321.704 389.952 321.704 389.952 320.382 388.883C299.034 370.727 286.959 342.452 284.21 314.9C282.979 297.976 282.826 280.54 286.999 264C287.166 263.334 287.332 262.669 287.503 261.983C292.872 241.359 303.058 223.215 317.999 208C318.784 207.19 319.569 206.381 320.378 205.547C360.615 166.477 430.696 165.302 472.999 201ZM359.261 240.086C351.887 249.587 347.999 259.982 347.999 272C380.999 272 413.999 272 447.999 272C447.999 258.303 443.284 245.949 434.011 235.851C422.535 225.289 407.997 223.306 392.989 223.868C380.05 224.726 368.066 230.7 359.261 240.086Z" fill="black"/>
<path d="M334 112C376.24 112 418.48 112 462 112C462 122.56 462 133.12 462 144C419.76 144 377.52 144 334 144C334 133.44 334 122.88 334 112Z" fill="black"/>
</svg>
