<svg width="512" height="512" viewBox="0 0 512 512" fill="none" xmlns="http://www.w3.org/2000/svg">
<g clip-path="url(#clip0_140_1065)">
<path d="M0.000175059 171C1.41228 171.774 2.82304 172.55 4.23325 173.327C5.4119 173.975 5.4119 173.975 6.61436 174.636C10.4559 176.832 14.0888 179.314 17.7385 181.812C18.5598 182.37 19.3812 182.927 20.2275 183.501C21.9984 184.703 23.7682 185.906 25.537 187.111C30.3478 190.385 35.1676 193.647 39.9885 196.906C40.9844 197.58 41.9804 198.253 43.0066 198.947C53.2815 205.884 63.6357 212.698 74.0002 219.5C88.5698 229.066 103.067 238.729 117.5 248.5C133.9 259.601 150.386 270.565 166.946 281.426C175.761 287.211 184.551 293.027 193.278 298.945C194.916 300.052 196.554 301.159 198.192 302.266C201.206 304.304 204.21 306.355 207.209 308.415C226.366 321.442 246.926 328.253 270.278 324.379C287.067 320.887 301.178 311.237 315.065 301.663C319.774 298.418 324.506 295.206 329.235 291.988C330.209 291.324 331.183 290.66 332.187 289.975C342.383 283.035 352.686 276.263 363 269.5C377.571 259.936 392.067 250.271 406.5 240.5C422.822 229.452 439.234 218.549 455.706 207.728C464.959 201.648 474.197 195.549 483.403 189.398C484.776 188.481 484.776 188.481 486.177 187.545C490.548 184.623 494.918 181.698 499.284 178.769C500.829 177.735 502.374 176.702 503.918 175.668C504.98 174.953 504.98 174.953 506.064 174.224C510.887 171 510.887 171 512 171C512.114 201.353 512.203 231.706 512.255 262.06C512.262 265.648 512.268 269.237 512.275 272.825C512.276 273.539 512.277 274.254 512.279 274.99C512.301 286.537 512.34 298.083 512.386 309.63C512.433 321.49 512.461 333.349 512.471 345.209C512.477 351.866 512.492 358.522 512.529 365.178C512.563 371.45 512.573 377.721 512.566 383.993C512.567 386.289 512.577 388.585 512.596 390.88C512.738 408.639 510.95 421.322 498.438 434.75C488.846 443.604 478.412 448.243 465.274 448.257C464.167 448.263 464.167 448.263 463.038 448.268C460.575 448.277 458.112 448.272 455.649 448.267C453.862 448.271 452.074 448.276 450.286 448.281C445.381 448.293 440.476 448.293 435.571 448.291C430.277 448.29 424.984 448.301 419.691 448.311C409.323 448.327 398.955 448.333 388.587 448.334C380.158 448.335 371.729 448.339 363.3 448.346C339.397 448.363 315.494 448.372 291.59 448.371C289.658 448.371 289.658 448.371 287.686 448.371C286.396 448.371 285.106 448.37 283.777 448.37C262.873 448.37 241.97 448.389 221.067 448.417C199.597 448.446 178.128 448.459 156.658 448.458C144.607 448.457 132.556 448.463 120.505 448.484C110.244 448.502 99.983 448.507 89.7219 448.493C84.4889 448.487 79.2561 448.486 74.0231 448.504C69.2269 448.519 64.4311 448.517 59.635 448.499C57.9055 448.496 56.176 448.5 54.4466 448.511C39.0085 448.604 26.1227 446.274 14.3127 435.562C13.5496 434.717 12.7864 433.871 12.0002 433C11.5194 432.511 11.0385 432.023 10.5431 431.52C4.34548 424.914 -0.12766 415.932 -0.122873 406.76C-0.124864 405.916 -0.126855 405.072 -0.128906 404.202C-0.125993 403.28 -0.123081 402.358 -0.120079 401.408C-0.120934 400.424 -0.121788 399.441 -0.122669 398.427C-0.124319 395.123 -0.118809 391.819 -0.11335 388.515C-0.113068 386.15 -0.113226 383.784 -0.113793 381.419C-0.11408 374.99 -0.108191 368.561 -0.101219 362.131C-0.0951338 356.096 -0.0945963 350.06 -0.093567 344.024C-0.0913783 332.069 -0.0847232 320.114 -0.0752644 308.159C-0.0660856 296.546 -0.059007 284.933 -0.0547566 273.319C-0.0544939 272.604 -0.0542311 271.888 -0.0539604 271.15C-0.0526554 267.559 -0.0513917 263.968 -0.0501485 260.377C-0.0397816 230.585 -0.0220939 200.792 0.000175059 171Z" fill="black"/>
<path d="M46.7261 63.7426C47.4642 63.7391 48.2023 63.7356 48.9628 63.732C51.4256 63.7227 53.8882 63.7276 56.351 63.7325C58.1388 63.7287 59.9266 63.7241 61.7144 63.7187C66.6195 63.7065 71.5246 63.7068 76.4297 63.7091C81.723 63.7095 87.0163 63.6985 92.3095 63.689C102.677 63.6724 113.045 63.6669 123.413 63.6658C131.842 63.6648 140.271 63.6607 148.7 63.6544C172.603 63.6368 196.507 63.6275 220.41 63.629C222.343 63.6292 222.343 63.6292 224.314 63.6293C225.604 63.6294 226.894 63.6294 228.223 63.6295C249.127 63.6303 270.03 63.6112 290.934 63.583C312.403 63.5543 333.873 63.5405 355.342 63.5422C367.393 63.5429 379.444 63.5374 391.495 63.5158C401.756 63.4976 412.017 63.4933 422.278 63.5069C427.511 63.5134 432.744 63.5135 437.977 63.4962C442.773 63.4804 447.569 63.4833 452.365 63.5007C454.095 63.5038 455.824 63.5002 457.554 63.489C472.992 63.3959 485.878 65.7259 497.688 76.4374C498.451 77.283 499.214 78.1286 500 78.9999C500.721 79.7153 500.721 79.7153 501.457 80.4452C510.956 90.4008 512.468 102.883 512.277 115.957C511.806 128.679 505.035 138.309 496.215 146.992C492.768 150.117 489.019 152.607 485.106 155.105C484.258 155.658 483.41 156.212 482.537 156.781C480.712 157.971 478.884 159.156 477.054 160.337C472.09 163.542 467.146 166.779 462.199 170.012C461.181 170.676 460.163 171.34 459.113 172.024C448.834 178.739 438.662 185.61 428.5 192.5C413.16 202.89 397.733 213.139 382.246 223.308C368.471 232.356 354.774 241.513 341.125 250.75C327.928 259.675 314.714 268.572 301.423 277.356C299.791 278.435 298.161 279.516 296.532 280.599C279.73 291.762 265.408 299.83 244.637 296.453C238.452 294.82 233.193 292.092 227.828 288.668C227.14 288.233 226.452 287.798 225.743 287.35C217.701 282.23 209.819 276.872 201.935 271.512C186.042 260.711 170.065 250.045 154 239.5C138.535 229.346 123.158 219.07 107.838 208.697C94.9161 199.952 81.9334 191.305 68.8938 182.736C60.9243 177.498 52.9613 172.25 45.0001 167C44.2427 166.501 43.4853 166.001 42.7049 165.487C38.6548 162.816 34.6121 160.134 30.5819 157.433C28.8946 156.305 27.2006 155.187 25.5062 154.07C16.522 148.017 8.61791 141.667 4.00011 131.687C3.44324 130.516 2.88636 129.344 2.31261 128.137C-1.98325 117.87 -1.67785 104.123 2.12511 93.7499C7.95213 80.9107 17.9756 71.3554 31.0001 65.9999C36.4008 64.4555 41.0694 63.7487 46.7261 63.7426Z" fill="black"/>
</g>
<defs>
<clipPath id="clip0_140_1065">
<rect width="512" height="512" fill="white"/>
</clipPath>
</defs>
</svg>
