<svg width="512" height="512" viewBox="0 0 512 512" fill="none" xmlns="http://www.w3.org/2000/svg">
<g clip-path="url(#clip0_140_1061)">
<path d="M145.812 -0.388081C148.487 -0.392153 151.161 -0.397391 153.835 -0.404011C160.307 -0.417259 166.779 -0.414511 173.251 -0.405773C178.517 -0.398961 183.782 -0.398095 189.048 -0.401344C190.178 -0.402034 190.178 -0.402034 191.331 -0.402737C192.862 -0.403697 194.393 -0.404669 195.923 -0.405655C210.234 -0.414183 224.544 -0.404416 238.854 -0.388254C251.098 -0.374853 263.342 -0.377182 275.586 -0.39101C289.849 -0.407113 304.113 -0.413359 318.376 -0.404174C319.901 -0.403218 321.426 -0.402275 322.951 -0.401344C323.701 -0.400882 324.451 -0.400419 325.223 -0.399942C330.475 -0.397366 335.727 -0.401693 340.978 -0.408783C347.39 -0.41725 353.801 -0.41481 360.212 -0.398941C363.475 -0.391127 366.738 -0.389497 370.001 -0.397888C387.418 -0.438521 403.749 0.339429 420.375 6.0626C421.244 6.3586 422.113 6.6546 423.009 6.95958C441.906 13.6742 457.474 24.2923 472 38.0001C472.737 38.673 473.474 39.3459 474.234 40.0392C489.08 54.0952 499.377 72.403 505.937 91.6251C506.343 92.8029 506.343 92.8029 506.756 94.0045C512.234 111.136 512.434 128.005 512.388 145.813C512.392 148.487 512.397 151.161 512.404 153.836C512.417 160.308 512.414 166.779 512.406 173.251C512.399 178.517 512.398 183.783 512.401 189.049C512.402 189.802 512.402 190.555 512.402 191.331C512.403 192.862 512.404 194.393 512.405 195.924C512.414 210.234 512.404 224.544 512.388 238.855C512.375 251.098 512.377 263.342 512.391 275.586C512.407 289.85 512.413 304.113 512.404 318.377C512.403 319.902 512.402 321.426 512.401 322.951C512.401 323.701 512.4 324.451 512.4 325.224C512.397 330.475 512.401 335.727 512.409 340.979C512.417 347.39 512.415 353.801 512.399 360.213C512.391 363.476 512.389 366.739 512.398 370.002C512.438 387.418 511.66 403.75 505.937 420.375C505.641 421.244 505.345 422.114 505.04 423.01C498.326 441.907 487.707 457.475 474 472C473.327 472.737 472.654 473.475 471.961 474.234C457.905 489.08 439.597 499.377 420.375 505.938C419.589 506.208 418.804 506.478 417.995 506.757C400.864 512.235 383.995 512.434 366.187 512.388C363.513 512.392 360.838 512.398 358.164 512.404C351.692 512.417 345.22 512.415 338.749 512.406C333.483 512.399 328.217 512.398 322.951 512.402C322.198 512.402 321.444 512.402 320.668 512.403C319.137 512.404 317.607 512.405 316.076 512.406C301.766 512.414 287.455 512.405 273.145 512.388C260.901 512.375 248.658 512.377 236.414 512.391C222.15 512.407 207.886 512.414 193.623 512.404C192.098 512.403 190.573 512.402 189.048 512.402C188.298 512.401 187.549 512.401 186.776 512.4C181.524 512.398 176.273 512.402 171.021 512.409C164.61 512.417 158.198 512.415 151.787 512.399C148.524 512.391 145.261 512.39 141.998 512.398C124.582 512.439 108.25 511.661 91.6246 505.938C90.7552 505.642 89.8858 505.346 88.9901 505.041C70.0931 498.326 54.5251 487.708 39.9996 474C39.2623 473.327 38.5249 472.654 37.7652 471.961C22.9195 457.905 12.6223 439.597 6.06212 420.375C5.79174 419.59 5.52136 418.805 5.24278 417.996C-0.235139 400.864 -0.434357 383.995 -0.388565 366.188C-0.392637 363.513 -0.397876 360.839 -0.404495 358.164C-0.417743 351.693 -0.414988 345.221 -0.40625 338.749C-0.399438 333.483 -0.398575 328.217 -0.401825 322.951C-0.402285 322.198 -0.402755 321.445 -0.403229 320.669C-0.404188 319.138 -0.405157 317.607 -0.406143 316.076C-0.414671 301.766 -0.404895 287.456 -0.388733 273.146C-0.375332 260.902 -0.377666 248.658 -0.391495 236.414C-0.407597 222.151 -0.413849 207.887 -0.404663 193.623C-0.403708 192.098 -0.402755 190.574 -0.401825 189.049C-0.401362 188.299 -0.400898 187.549 -0.400421 186.776C-0.397845 181.525 -0.402181 176.273 -0.409271 171.022C-0.417738 164.61 -0.415298 158.199 -0.399429 151.787C-0.391616 148.524 -0.389986 145.262 -0.398376 141.999C-0.43901 124.582 0.338944 108.25 6.06212 91.6251C6.35812 90.7557 6.65412 89.8863 6.95909 88.9906C13.6737 70.0935 24.2918 54.5256 37.9996 40.0001C38.6725 39.2628 39.3454 38.5254 40.0387 37.7657C54.0947 22.92 72.4026 12.6228 91.6246 6.0626C92.4098 5.79222 93.195 5.52184 94.004 5.24327C111.136 -0.234655 128.005 -0.433873 145.812 -0.388081ZM151.75 94.6251C151.012 94.8852 150.274 95.1454 149.515 95.4134C126.493 103.893 108.729 121.064 97.9996 143C90.7988 160.113 89.8468 176.76 89.8544 195.143C89.8514 196.614 89.8479 198.084 89.8442 199.554C89.8354 203.509 89.833 207.464 89.8324 211.419C89.8317 213.901 89.8295 216.382 89.8269 218.864C89.8176 227.554 89.8135 236.244 89.8143 244.933C89.8149 252.983 89.8044 261.033 89.7886 269.082C89.7754 276.036 89.7701 282.989 89.7708 289.942C89.771 294.076 89.7683 298.21 89.7576 302.345C89.5601 348.835 89.5601 348.835 111 389C111.963 390.193 111.963 390.193 112.945 391.41C129.071 410.66 152.32 419.449 176.782 421.819C182.778 422.309 188.785 422.278 194.796 422.259C196.289 422.262 197.781 422.265 199.273 422.27C203.269 422.278 207.265 422.275 211.261 422.269C215.478 422.264 219.695 422.268 223.913 422.272C230.99 422.275 238.067 422.27 245.144 422.261C253.281 422.25 261.418 422.253 269.556 422.264C276.591 422.274 283.625 422.275 290.66 422.27C294.841 422.267 299.021 422.266 303.202 422.273C307.135 422.279 311.068 422.274 315.002 422.263C316.43 422.26 317.858 422.261 319.286 422.265C344.521 422.337 369.491 418.185 389 401C390.193 400.037 390.193 400.037 391.41 399.055C409.68 383.75 419.31 361.254 421.596 337.873C422.598 325.325 422.289 312.655 422.268 300.075C422.263 295.919 422.268 291.764 422.271 287.608C422.275 280.635 422.27 273.662 422.26 266.69C422.249 258.677 422.253 250.664 422.264 242.651C422.273 235.719 422.274 228.787 422.269 221.855C422.266 217.737 422.266 213.62 422.272 209.503C422.428 163.087 422.428 163.087 401 123C400.002 121.79 400.002 121.79 398.984 120.555C383.736 102.619 362.127 92.6723 338.922 90.406C326.224 89.3936 313.401 89.711 300.67 89.7314C296.459 89.7366 292.247 89.7318 288.036 89.7287C280.969 89.7251 273.902 89.7298 266.835 89.7394C258.713 89.7502 250.591 89.7467 242.469 89.7357C235.443 89.7266 228.418 89.7254 221.392 89.7306C217.219 89.7337 213.046 89.7342 208.873 89.7275C179.875 88.8893 179.875 88.8893 151.75 94.6251Z" fill="black"/>
<path d="M176.481 119.732C177.189 119.728 177.897 119.723 178.627 119.719C180.976 119.706 183.325 119.708 185.675 119.709C187.369 119.703 189.064 119.697 190.758 119.689C195.345 119.671 199.932 119.667 204.519 119.665C207.39 119.664 210.262 119.66 213.133 119.654C223.165 119.636 233.198 119.628 243.231 119.629C252.557 119.63 261.882 119.609 271.208 119.578C279.236 119.552 287.263 119.541 295.291 119.542C300.076 119.543 304.861 119.537 309.646 119.516C314.152 119.496 318.657 119.496 323.162 119.511C324.807 119.513 326.451 119.508 328.095 119.496C346.185 119.371 361.39 123.985 374.719 136.66C385.343 147.557 392.227 161.061 392.268 176.48C392.272 177.188 392.277 177.897 392.282 178.626C392.294 180.976 392.293 183.325 392.291 185.674C392.297 187.369 392.304 189.063 392.311 190.757C392.329 195.345 392.334 199.931 392.335 204.519C392.336 207.39 392.341 210.261 392.346 213.132C392.364 223.165 392.373 233.197 392.371 243.23C392.37 252.556 392.391 261.882 392.422 271.208C392.449 279.235 392.459 287.263 392.458 295.29C392.458 300.076 392.463 304.861 392.484 309.646C392.504 314.151 392.504 318.656 392.489 323.162C392.487 324.806 392.492 326.45 392.504 328.095C392.629 346.185 388.015 361.39 375.34 374.719C364.443 385.343 350.939 392.226 335.52 392.267C334.812 392.272 334.104 392.276 333.374 392.281C331.025 392.294 328.675 392.292 326.326 392.29C324.631 392.296 322.937 392.303 321.243 392.311C316.656 392.328 312.069 392.333 307.482 392.334C304.61 392.336 301.739 392.34 298.868 392.345C288.835 392.364 278.803 392.372 268.77 392.37C259.444 392.369 250.118 392.39 240.792 392.422C232.765 392.448 224.737 392.459 216.71 392.458C211.925 392.457 207.14 392.463 202.354 392.484C197.849 392.503 193.344 392.503 188.838 392.489C187.194 392.487 185.55 392.491 183.906 392.504C165.816 392.629 150.611 388.015 137.282 375.34C126.657 364.443 119.774 350.938 119.733 335.52C119.728 334.811 119.724 334.103 119.719 333.374C119.707 331.024 119.708 328.675 119.71 326.325C119.704 324.631 119.697 322.937 119.689 321.242C119.672 316.655 119.667 312.068 119.666 307.481C119.664 304.61 119.66 301.739 119.655 298.867C119.636 288.835 119.628 278.802 119.63 268.77C119.631 259.444 119.61 250.118 119.578 240.792C119.552 232.764 119.541 224.737 119.543 216.709C119.543 211.924 119.538 207.139 119.516 202.354C119.497 197.848 119.497 193.343 119.511 188.838C119.513 187.194 119.509 185.549 119.497 183.905C119.371 165.815 123.985 150.61 136.661 137.281C147.558 126.657 161.062 119.773 176.481 119.732ZM330 161C327.242 165.424 327.353 169.942 328 175C330.163 179.406 332.397 182.199 337 184C342.044 184.684 345.831 184.574 350.438 182.312C353.797 179.281 355.694 177.258 356.317 172.668C356.582 166.95 355.969 163.397 352 159C348.201 155.648 344.4 155.432 339.508 155.578C335.542 156.245 332.716 158.068 330 161ZM202 204C187.425 218.93 181.71 238.521 181.758 258.851C181.962 275.761 187.997 291.051 199 304C199.743 304.99 200.485 305.98 201.25 307C209.059 316.057 219.294 321.187 230 326C230.791 326.362 231.581 326.724 232.395 327.098C249.887 333.963 270.251 331.253 287 324C306.606 315.137 319.3 299.635 327 280C327.542 278.627 327.542 278.627 328.094 277.226C333.794 259.231 330.854 237.814 322.375 221.312C312.939 204.103 297.876 190.867 279.161 184.644C250.816 176.542 223.371 183.674 202 204Z" fill="black"/>
<path d="M281.579 217.644C291.053 224.593 298.53 234.288 301 246C302.297 260.007 301.164 272.296 292.625 283.937C285.376 292.445 275.437 300.126 263.917 301.193C249.372 301.719 237.472 300.643 225.922 290.801C217.792 283.182 211.141 273.131 210.727 261.691C210.31 246.841 212.506 235.2 223 224C238.019 208.129 263.488 206.105 281.579 217.644Z" fill="black"/>
</g>
<defs>
<clipPath id="clip0_140_1061">
<rect width="512" height="512" fill="white"/>
</clipPath>
</defs>
</svg>
