<svg width="512" height="512" viewBox="0 0 512 512" fill="none" xmlns="http://www.w3.org/2000/svg">
<path d="M427.594 200.028C451.459 220.394 458.359 251.449 460.79 281.417C461.202 288.445 461.13 295.481 461.114 302.519C461.113 304.254 461.113 305.99 461.114 307.726C461.114 312.403 461.108 317.08 461.101 321.756C461.095 326.657 461.095 331.558 461.093 336.458C461.09 345.723 461.082 354.987 461.072 364.252C461.059 376.782 461.053 389.312 461.048 401.842C461.038 421.561 461.018 441.281 461 461C432.62 461 404.24 461 375 461C374.963 449.72 374.925 438.439 374.887 426.817C374.856 419.648 374.825 412.479 374.791 405.311C374.737 393.945 374.685 382.58 374.654 371.215C374.63 362.935 374.597 354.656 374.551 346.376C374.528 341.999 374.509 337.621 374.502 333.244C374.496 329.109 374.476 324.975 374.446 320.841C374.437 319.337 374.433 317.833 374.435 316.329C374.45 298.125 372.75 278.77 359.438 265.129C350.655 257.458 339.855 255.545 328.418 256.192C320.422 256.836 312.979 257.781 306 262C304.989 262.557 303.979 263.114 302.938 263.688C290.19 273.723 285.127 287.637 283.216 303.396C282.727 309.294 282.818 315.222 282.795 321.137C282.785 322.665 282.775 324.193 282.765 325.722C282.738 329.851 282.717 333.981 282.697 338.11C282.675 342.433 282.647 346.756 282.621 351.079C282.571 359.256 282.526 367.433 282.483 375.611C282.424 386.667 282.358 397.723 282.292 408.779C282.188 426.186 282.095 443.593 282 461C253.62 461 225.24 461 196 461C196 370.58 196 280.16 196 187C223.06 187 250.12 187 278 187C278.33 198.55 278.66 210.1 279 222C281.31 218.7 283.62 215.4 286 212C300.872 192.965 323.754 183.255 347.316 180.313C375.273 177.941 405.038 182.398 427.594 200.028Z" fill="black"/>
<path d="M57 187C85.38 187 113.76 187 143 187C143 277.42 143 367.84 143 461C114.62 461 86.24 461 57 461C57 370.58 57 280.16 57 187Z" fill="black"/>
<path d="M127.75 58.125C139.186 65.9433 146.198 76.6576 149.496 90.0195C151.933 104.436 149.03 117.864 141 130C133.476 140.312 122.638 147.663 110 150C99.3019 151.035 88.6906 151.124 79 146C77.7141 145.346 77.7141 145.346 76.4023 144.68C64.4797 138.098 56.3267 127.847 52.0625 114.875C48.7281 100.474 50.608 86.6289 57.75 73.75C64.8218 62.7179 75.0407 55.5224 87.5351 51.6953C101.606 48.8717 115.325 50.8558 127.75 58.125Z" fill="black"/>
</svg>
